<?xml version="1.0" encoding="utf-8"?>
<!-- Generator: Adobe Illustrator 16.0.4, SVG Export Plug-In . SVG Version: 6.00 Build 0)  -->
<!DOCTYPE svg PUBLIC "-//W3C//DTD SVG 1.1//EN" "http://www.w3.org/Graphics/SVG/1.1/DTD/svg11.dtd">
<svg version="1.1" id="Layer_1" xmlns="http://www.w3.org/2000/svg" xmlns:xlink="http://www.w3.org/1999/xlink" x="0px" y="0px"
	 width="651.969px" height="198.425px" viewBox="0 0 651.969 198.425" enable-background="new 0 0 651.969 198.425"
	 xml:space="preserve">
<g>
	<g>
		<g>
			<path fill="#0B2E3A" d="M250.035,75.918c2.875,1.016,5.09,2.465,6.645,4.348c1.555,1.887,2.332,4.102,2.332,6.645
				c0,2.5-0.754,4.715-2.262,6.648c-1.508,1.93-3.559,3.273-6.148,4.027c3.016,0.613,5.43,2.062,7.246,4.348
				c1.812,2.289,2.723,5.008,2.723,8.168c0,2.781-0.805,5.219-2.406,7.316s-3.875,3.711-6.82,4.84
				c-2.945,1.133-6.375,1.699-10.289,1.699h-25.379V74.399h24.32C243.812,74.399,247.16,74.907,250.035,75.918z M242.684,92.672
				c0.848-0.777,1.27-1.824,1.27-3.145c0-1.273-0.422-2.273-1.27-3.004s-2.004-1.098-3.465-1.098h-8.91v8.414h8.91
				C240.68,93.84,241.836,93.45,242.684,92.672z M243.707,111.727c1.105-0.848,1.66-2.004,1.66-3.465
				c0-1.367-0.555-2.438-1.66-3.219c-1.109-0.777-2.605-1.141-4.488-1.094h-8.91v8.977h8.91
				C241.102,112.977,242.598,112.575,243.707,111.727z"/>
			<path fill="#0B2E3A" d="M295.633,123.958l-6.574-13.363h-7.777v13.363h-14.703V74.399h23.117c6.645,0,11.793,1.531,15.445,4.594
				c3.652,3.066,5.48,7.402,5.48,13.008c0,3.633-0.719,6.777-2.156,9.438c-1.438,2.664-3.5,4.773-6.188,6.328l10.039,16.191H295.633
				z M281.281,99.282h8.414c2.215,0,3.922-0.586,5.125-1.766c1.203-1.176,1.801-2.875,1.801-5.09c0-2.168-0.598-3.828-1.801-4.984
				c-1.203-1.152-2.91-1.73-5.125-1.73h-8.414V99.282z"/>
			<path fill="#0B2E3A" d="M317.832,74.399h14.703v49.559h-14.703V74.399z"/>
			<path fill="#0B2E3A" d="M373.254,98.293h12.656v20.148c-2.688,1.887-6.008,3.441-9.969,4.668
				c-3.957,1.223-7.707,1.835-11.238,1.835c-5.047,0-9.594-1.116-13.645-3.358c-4.055-2.234-7.238-5.312-9.547-9.223
				c-2.309-3.914-3.465-8.32-3.465-13.223c0-4.852,1.191-9.234,3.57-13.148c2.383-3.91,5.68-6.973,9.898-9.191
				c4.219-2.215,8.945-3.32,14.176-3.32c3.77,0,7.539,0.684,11.312,2.047c3.77,1.371,6.973,3.23,9.613,5.586l-8.344,10.039
				c-1.695-1.648-3.688-2.969-5.973-3.957c-2.285-0.992-4.512-1.484-6.68-1.484c-2.359,0-4.488,0.59-6.398,1.766
				c-1.91,1.18-3.406,2.793-4.488,4.844c-1.086,2.051-1.629,4.324-1.629,6.82c0,2.547,0.555,4.855,1.664,6.93
				c1.105,2.074,2.625,3.699,4.559,4.879c1.934,1.176,4.078,1.766,6.434,1.766c2.121,0,4.617-0.684,7.492-2.051V98.293z"/>
			<path fill="#0B2E3A" d="M393.191,74.399h14.703v19.723H425.5V74.399h14.703v49.559H425.5v-18.453h-17.605v18.453h-14.703V74.399z
				"/>
			<path fill="#0B2E3A" d="M444.797,74.399h43.551v11.734h-14.422v37.824h-14.777V86.133h-14.352V74.399z"/>
		</g>
		<g>
			<path fill="#0B2E3A" d="M530.125,81.715c-2.5-1.105-5.066-1.66-7.707-1.66c-3.488,0-6.691,0.848-9.613,2.543
				c-2.922,1.699-5.23,3.996-6.93,6.895c-1.695,2.898-2.543,6.09-2.543,9.578c0,3.441,0.848,6.621,2.543,9.543
				c1.699,2.926,4.008,5.234,6.93,6.93s6.125,2.547,9.613,2.547c2.594,0,5.137-0.531,7.637-1.594
				c2.496-1.059,4.711-2.508,6.645-4.348l4.102,4.457c-2.5,2.449-5.398,4.371-8.695,5.762c-3.301,1.391-6.645,2.081-10.039,2.081
				c-4.715,0-9.027-1.116-12.938-3.354c-3.914-2.238-7-5.289-9.262-9.156c-2.262-3.863-3.395-8.129-3.395-12.797
				c0-4.617,1.145-8.848,3.43-12.688c2.285-3.844,5.41-6.871,9.367-9.086c3.961-2.215,8.316-3.324,13.078-3.324
				c3.441,0,6.777,0.648,10.004,1.945s6.02,3.125,8.379,5.48l-4.031,4.879C534.816,84.368,532.621,82.825,530.125,81.715z"/>
			<path fill="#0B2E3A" d="M586.754,123.958l-5.234-12.02h-26.086l-5.16,12.02h-7.141l21.984-49.488h7.07l21.918,49.488H586.754z
				 M558.121,105.79h20.785L568.441,81.75L558.121,105.79z"/>
			<path fill="#0B2E3A" d="M634.719,78.852c3.371,2.922,5.055,7.023,5.055,12.301c0,5.516-1.695,9.793-5.09,12.832
				s-8.152,4.559-14.281,4.559h-12.301v15.414h-6.785V74.469h19.086C626.578,74.469,631.348,75.93,634.719,78.852z M629.875,99.602
				c2.266-1.863,3.395-4.605,3.395-8.238c0-3.531-1.129-6.207-3.395-8.023c-2.262-1.812-5.512-2.719-9.754-2.719l-12.02,0.07v21.703
				h12.02C624.363,102.395,627.613,101.465,629.875,99.602z"/>
		</g>
	</g>
	<g>
		<path fill="#F7941E" d="M187.463,83.121c0,3.121-2.531,5.652-5.648,5.652c-3.121,0-5.652-2.531-5.652-5.652
			c0-3.117,2.531-5.648,5.652-5.648C184.932,77.473,187.463,80.004,187.463,83.121z"/>
		<g>
			<g>
				<path fill="#80AF4A" d="M12.195,98.695c0-43.711,31.285-80.418,74.402-87.262c3.211-0.512,6.227,1.676,6.742,4.887
					c0.508,3.273-1.688,6.238-4.902,6.746C51.09,29,23.98,60.812,23.98,98.695c0,42.23,34.352,76.589,76.586,76.589
					c42.23,0,76.59-34.359,76.59-76.589c0-3.254,2.633-5.891,5.891-5.891c3.25,0,5.891,2.637,5.891,5.891
					c0,48.73-39.648,88.371-88.371,88.371C51.836,187.066,12.195,147.425,12.195,98.695z"/>
			</g>
			<g>
				<path fill="#C1CB3B" d="M45.562,138.894c0-1.707,0.738-3.398,2.152-4.562c2.523-2.062,6.238-1.691,8.297,0.824
					c6.348,7.75,14.625,13.738,23.93,17.312c6.574,2.52,13.516,3.797,20.625,3.797c3.25,0,5.891,2.633,5.891,5.891
					c0,3.254-2.641,5.891-5.891,5.891c-8.562,0-16.914-1.543-24.844-4.578c-11.219-4.312-21.184-11.516-28.824-20.848
					C46,141.527,45.562,140.207,45.562,138.894z"/>
			</g>
			<g>
				<path fill="#C1CB3B" d="M50.227,98.695c0-23.801,16.906-44.539,40.203-49.312c3.188-0.652,6.293,1.402,6.949,4.594
					c0.66,3.188-1.402,6.301-4.594,6.949c-17.832,3.656-30.777,19.539-30.777,37.77c0,3.035,0.355,6.046,1.047,8.964
					c0.461,1.926,1.082,3.836,1.828,5.68c5.977,14.527,19.977,23.91,35.684,23.91c13.289,0,25.477-6.719,32.598-17.969
					c1.738-2.75,5.379-3.57,8.129-1.828c2.75,1.73,3.574,5.383,1.832,8.121c-9.293,14.688-25.207,23.457-42.559,23.457
					c-20.504,0-38.789-12.254-46.578-31.219c-0.984-2.395-1.797-4.895-2.395-7.422C50.688,106.577,50.227,102.644,50.227,98.695z"/>
			</g>
			<path fill="#309ABD" d="M48.285,124.839c0,3.121-2.531,5.652-5.648,5.652c-3.121,0-5.652-2.531-5.652-5.652
				c0-3.117,2.531-5.648,5.652-5.648C45.754,119.191,48.285,121.722,48.285,124.839z"/>
			<path fill="#D61969" d="M116.629,17.457c0,3.121-2.531,5.652-5.648,5.652c-3.121,0-5.652-2.531-5.652-5.652
				c0-3.117,2.531-5.648,5.652-5.648C114.098,11.809,116.629,14.34,116.629,17.457z"/>
			<path fill="#8454A2" d="M110.512,98.82c0,4.679-3.797,8.468-8.473,8.468s-8.473-3.789-8.473-8.468
				c0-4.676,3.797-8.469,8.473-8.469S110.512,94.145,110.512,98.82z"/>
			<path fill="#C1CB3B" d="M181.984,64.285c-4.113-9.719-9.887-18.555-17.168-26.258c-8.855-9.371-19.836-16.816-31.93-21.598
				c-0.906-0.324-0.605-0.164-1.781-0.789l-0.008,0.021c-0.84-0.451-1.781-0.729-2.797-0.729c-3.285,0-5.945,2.66-5.945,5.941
				c0,2.705,1.816,4.961,4.289,5.684l-0.016,0.043c1.043,0.461,1.797,0.746,2.098,0.852c10.328,4.086,19.844,10.543,27.527,18.664
				c6.309,6.684,11.316,14.34,14.883,22.758c1.266,3,4.727,4.398,7.719,3.133C181.859,70.734,183.238,67.266,181.984,64.285z"/>
			<path fill="#80AF4A" d="M102.16,29.367c-37.008-0.891-68.035,27.516-70.812,64.34h0.008c-0.02,0.188-0.062,0.367-0.07,0.559
				c-0.078,3.285,2.52,6.012,5.805,6.09s6.012-2.52,6.09-5.805c0.008-0.305-0.031-0.598-0.066-0.891l0.031-0.004
				c2.613-29.984,28.223-53.242,58.73-52.512c31.734,0.762,56.934,27.203,56.172,58.934c-0.535,22.195-14.016,42.335-34.336,51.312
				c-2.973,1.312-4.324,4.773-3.008,7.77c1.316,2.977,4.793,4.32,7.766,3.012c24.477-10.812,40.711-35.074,41.355-61.812
				C170.742,62.133,140.387,30.285,102.16,29.367z"/>
			<path fill="#80AF4A" d="M100.566,68.211c-16.812,0-30.492,13.676-30.492,30.484c0,16.812,13.68,30.488,30.492,30.488
				c2.496,0,4.992-0.305,7.73-1.004c0.133-0.039,0.324-0.09,0.566-0.145v-0.008c3.238-0.07,5.844-2.707,5.844-5.961
				c0-3.301-2.672-5.977-5.973-5.977c-0.629,0-1.223,0.125-1.793,0.305c-0.258,0.051-0.504,0.105-0.719,0.156
				c-0.023,0.004-0.055,0.012-0.078,0.016c-0.547,0.129-0.914,0.238-1.035,0.277c-1.473,0.371-3,0.555-4.543,0.555
				c-10.32,0-18.711-8.387-18.711-18.703c0-10.316,8.391-18.703,18.711-18.703c10.309,0,18.703,8.387,18.703,18.703
				c0,3.257,2.641,5.89,5.891,5.89c3.254,0,5.891-2.633,5.891-5.89C131.051,81.887,117.375,68.211,100.566,68.211z"/>
			<path fill="#80AF4A" d="M150.918,97.957l0.062-0.004l-0.602-6.508c-0.59-4.066-1.672-8.035-3.223-11.82
				c-5.691-13.906-17.168-24.457-31.496-28.949c-3.105-0.973-6.406,0.75-7.383,3.852c-0.188,0.586-0.273,1.188-0.273,1.77
				c0,2.504,1.617,4.832,4.133,5.617c10.973,3.445,19.754,11.523,24.117,22.18c1.293,3.148,2.156,6.477,2.559,9.719
				c0.027,0.297,0.098,0.961,0.227,1.902c0,0,0.129,1.863-0.184,2.488h0.098c-0.051,0.316-0.098,0.637-0.098,0.969
				c0,3.366,2.727,6.093,6.094,6.093s6.094-2.727,6.094-6.093C151.043,98.754,151,98.348,150.918,97.957z"/>
		</g>
	</g>
</g>
</svg>
