<svg xmlns="http://www.w3.org/2000/svg" width="628.5" height="176.5" xml:space="preserve"><path d="M238.396 65.138c2.875 1.016 5.09 2.465 6.645 4.348 1.555 1.887 2.332 4.102 2.332 6.645 0 2.5-.754 4.715-2.262 6.648-1.508 1.93-3.56 3.273-6.148 4.027 3.016.613 5.43 2.062 7.246 4.348 1.812 2.29 2.723 5.008 2.723 8.168 0 2.781-.805 5.22-2.406 7.316-1.601 2.097-3.875 3.711-6.82 4.84-2.945 1.133-6.375 1.7-10.29 1.7h-25.378V63.618h24.32c3.815 0 7.163.508 10.038 1.52zm-7.351 16.754c.848-.777 1.27-1.824 1.27-3.145 0-1.273-.422-2.273-1.27-3.004-.848-.73-2.004-1.098-3.465-1.098h-8.91v8.414h8.91c1.46.001 2.617-.389 3.465-1.167zm1.023 19.055c1.105-.848 1.66-2.004 1.66-3.465 0-1.367-.555-2.438-1.66-3.219-1.11-.777-2.605-1.14-4.488-1.094h-8.91v8.977h8.91c1.883.051 3.379-.35 4.488-1.199zm51.926 12.231-6.574-13.363h-7.777v13.363H254.94V63.62h23.117c6.645 0 11.793 1.531 15.445 4.594 3.652 3.066 5.48 7.402 5.48 13.008 0 3.633-.72 6.777-2.156 9.438-1.438 2.664-3.5 4.773-6.188 6.328l10.039 16.191zm-14.352-24.676h8.414c2.215 0 3.922-.586 5.125-1.766 1.203-1.176 1.8-2.875 1.8-5.09 0-2.168-.597-3.828-1.8-4.984-1.203-1.152-2.91-1.73-5.125-1.73h-8.414zm36.55-24.883h14.704v49.56h-14.703zm55.423 23.894h12.656v20.148c-2.688 1.887-6.008 3.441-9.97 4.668-3.956 1.223-7.706 1.835-11.237 1.835-5.047 0-9.594-1.116-13.645-3.358-4.055-2.234-7.238-5.312-9.547-9.223-2.31-3.914-3.465-8.32-3.465-13.223 0-4.852 1.19-9.234 3.57-13.148 2.383-3.91 5.68-6.973 9.898-9.19 4.219-2.216 8.945-3.32 14.176-3.32 3.77 0 7.539.683 11.312 2.046 3.77 1.371 6.973 3.23 9.613 5.586l-8.344 10.04c-1.695-1.649-3.688-2.97-5.973-3.958-2.285-.992-4.512-1.484-6.68-1.484-2.36 0-4.488.59-6.398 1.766-1.91 1.18-3.406 2.793-4.488 4.844-1.086 2.051-1.63 4.324-1.63 6.82 0 2.547.556 4.855 1.665 6.93 1.105 2.074 2.625 3.7 4.559 4.88 1.934 1.175 4.078 1.765 6.434 1.765 2.12 0 4.617-.684 7.492-2.05V87.512Zm19.937-23.894h14.703v19.723h17.606V63.62h14.703v49.56H413.86V94.724h-17.605v18.453h-14.703V63.62Zm51.606 0h43.55v11.734h-14.421v37.824H447.51V75.353h-14.352zm85.328 7.316c-2.5-1.105-5.066-1.66-7.707-1.66-3.488 0-6.691.848-9.613 2.543-2.922 1.7-5.23 3.996-6.93 6.895-1.695 2.898-2.543 6.09-2.543 9.578 0 3.441.848 6.621 2.543 9.543a18.784 18.784 0 0 0 6.93 6.93c2.922 1.696 6.125 2.547 9.613 2.547 2.594 0 5.137-.53 7.637-1.594a22.048 22.048 0 0 0 6.645-4.348l4.102 4.457c-2.5 2.45-5.398 4.371-8.695 5.762-3.301 1.391-6.645 2.081-10.04 2.081-4.714 0-9.026-1.116-12.937-3.354-3.914-2.238-7-5.289-9.262-9.156-2.262-3.863-3.395-8.129-3.395-12.797 0-4.617 1.145-8.848 3.43-12.688 2.285-3.844 5.41-6.87 9.367-9.086 3.96-2.215 8.316-3.324 13.078-3.324 3.44 0 6.777.648 10.004 1.945 3.227 1.297 6.02 3.125 8.379 5.48l-4.031 4.88a20.473 20.473 0 0 0-6.575-4.634zm56.629 42.243-5.234-12.02h-26.086l-5.16 12.02h-7.141l21.984-49.488h7.07l21.918 49.488zM546.482 95.01h20.785l-10.465-24.04Zm76.598-26.938c3.37 2.922 5.055 7.023 5.055 12.301 0 5.516-1.695 9.793-5.09 12.832-3.395 3.04-8.152 4.56-14.281 4.56h-12.301v15.413h-6.785V63.69h19.086c6.175 0 10.945 1.461 14.316 4.383zm-4.844 20.75c2.266-1.863 3.395-4.605 3.395-8.238 0-3.53-1.13-6.207-3.395-8.023-2.262-1.812-5.512-2.719-9.754-2.719l-12.02.07v21.703h12.02c4.242 0 7.492-.93 9.754-2.793z" fill="#0b2e3a"/><path fill="#f7941e" d="M175.824 72.341a5.652 5.652 0 0 1-5.648 5.652 5.653 5.653 0 0 1-5.652-5.652 5.651 5.651 0 0 1 11.3 0z"/><path fill="#80af4a" d="M.556 87.915C.556 44.205 31.84 7.497 74.958.653A5.89 5.89 0 0 1 81.7 5.54a5.869 5.869 0 0 1-4.902 6.746C39.45 18.22 12.34 50.032 12.34 87.916c0 42.23 34.352 76.588 76.586 76.588 42.23 0 76.59-34.359 76.59-76.589a5.888 5.888 0 0 1 5.89-5.89 5.893 5.893 0 0 1 5.892 5.89c0 48.73-39.648 88.371-88.371 88.371-48.731 0-88.372-39.64-88.372-88.37z"/><path fill="#c1cb3b" d="M33.923 128.114c0-1.707.738-3.398 2.152-4.562a5.9 5.9 0 0 1 8.297.824c6.348 7.75 14.625 13.738 23.93 17.312 6.574 2.52 13.516 3.797 20.625 3.797a5.891 5.891 0 1 1 0 11.782 69.219 69.219 0 0 1-24.844-4.578 69.577 69.577 0 0 1-28.824-20.848 5.855 5.855 0 0 1-1.336-3.727z"/><path fill="#c1cb3b" d="M38.588 87.915c0-23.8 16.906-44.539 40.203-49.312a5.888 5.888 0 0 1 6.949 4.594 5.878 5.878 0 0 1-4.594 6.95c-17.832 3.655-30.777 19.538-30.777 37.77 0 3.034.355 6.045 1.047 8.963a40.094 40.094 0 0 0 1.828 5.68c5.977 14.527 19.977 23.91 35.684 23.91 13.289 0 25.477-6.719 32.598-17.969a5.889 5.889 0 0 1 8.129-1.828c2.75 1.73 3.574 5.383 1.832 8.121-9.293 14.688-25.207 23.457-42.56 23.457-20.503 0-38.788-12.254-46.577-31.219a49.782 49.782 0 0 1-2.395-7.422 50.642 50.642 0 0 1-1.367-11.695z"/><path fill="#309abd" d="M36.646 114.06a5.652 5.652 0 0 1-5.648 5.651 5.653 5.653 0 0 1-5.652-5.652 5.651 5.651 0 0 1 11.3 0z"/><path fill="#d61969" d="M104.99 6.677a5.652 5.652 0 0 1-5.648 5.652 5.653 5.653 0 0 1-5.652-5.652 5.651 5.651 0 0 1 11.3 0z"/><path fill="#8454a2" d="M98.873 88.04c0 4.68-3.797 8.468-8.473 8.468s-8.473-3.789-8.473-8.468c0-4.676 3.797-8.469 8.473-8.469s8.473 3.794 8.473 8.47z"/><path fill="#c1cb3b" d="M170.345 53.505a88.08 88.08 0 0 0-17.168-26.258c-8.855-9.37-19.836-16.816-31.93-21.598-.906-.324-.605-.164-1.781-.789l-.008.021c-.84-.45-1.781-.729-2.797-.729a5.942 5.942 0 0 0-5.945 5.941c0 2.705 1.816 4.961 4.289 5.684l-.016.043c1.043.461 1.797.746 2.098.852 10.328 4.086 19.844 10.543 27.527 18.664a76.59 76.59 0 0 1 14.883 22.758 5.89 5.89 0 0 0 7.719 3.133c3.004-1.273 4.383-4.74 3.129-7.722z"/><path fill="#80af4a" d="M90.52 18.587c-37.007-.89-68.034 27.516-70.811 64.34h.008c-.02.188-.062.367-.07.56a5.95 5.95 0 1 0 11.895.284c.008-.305-.031-.598-.066-.89l.03-.005c2.614-29.984 28.224-53.242 58.73-52.512 31.735.762 56.935 27.203 56.173 58.934-.535 22.195-14.016 42.335-34.336 51.312a5.886 5.886 0 0 0-3.008 7.77 5.895 5.895 0 0 0 7.766 3.012c24.477-10.812 40.71-35.074 41.355-61.812.917-38.227-29.438-70.075-67.665-70.993z"/><path fill="#80af4a" d="M88.927 57.431c-16.812 0-30.492 13.676-30.492 30.484 0 16.812 13.68 30.488 30.492 30.488 2.496 0 4.992-.305 7.73-1.004.133-.039.324-.09.566-.145v-.008c3.238-.07 5.844-2.707 5.844-5.96a5.974 5.974 0 0 0-5.973-5.978c-.63 0-1.223.125-1.793.305-.258.051-.504.105-.72.156l-.077.016c-.547.13-.914.238-1.035.277-1.473.371-3 .555-4.543.555-10.32 0-18.711-8.387-18.711-18.703 0-10.316 8.39-18.703 18.71-18.703 10.31 0 18.704 8.387 18.704 18.703a5.89 5.89 0 0 0 5.89 5.89 5.888 5.888 0 0 0 5.892-5.89c0-16.807-13.675-30.483-30.484-30.483z"/><path fill="#80af4a" d="m139.279 87.177.062-.004-.602-6.508a50.167 50.167 0 0 0-3.223-11.82c-5.691-13.906-17.168-24.457-31.496-28.949a5.89 5.89 0 1 0-3.523 11.24c10.973 3.444 19.754 11.522 24.117 22.18a38.223 38.223 0 0 1 2.559 9.718c.027.297.098.961.227 1.902 0 0 .129 1.863-.184 2.488h.098a6.05 6.05 0 0 0-.098.97 6.092 6.092 0 0 0 6.094 6.092 6.092 6.092 0 0 0 5.969-7.309z"/></svg>