<?xml version="1.0" standalone="no"?>
<!DOCTYPE svg PUBLIC "-//W3C//DTD SVG 20010904//EN"
 "http://www.w3.org/TR/2001/REC-SVG-20010904/DTD/svg10.dtd">
<svg version="1.0" xmlns="http://www.w3.org/2000/svg"
 width="700.000000pt" height="700.000000pt" viewBox="0 0 700.000000 700.000000"
 preserveAspectRatio="xMidYMid meet">
<metadata>
Created by potrace 1.14, written by Peter Selinger 2001-2017
</metadata>
<g transform="translate(0.000000,700.000000) scale(0.100000,-0.100000)"
fill="#000000" stroke="none">
<path d="M2895 6724 c-890 -164 -1659 -677 -2150 -1434 -36 -55 -65 -102 -65
-106 0 -3 -9 -19 -20 -34 -40 -57 -159 -304 -213 -445 -115 -297 -191 -637
-212 -946 -5 -65 -5 -396 0 -459 6 -100 19 -212 30 -270 3 -14 7 -41 10 -60
29 -192 98 -436 185 -660 40 -101 189 -399 245 -488 176 -278 426 -573 640
-753 22 -19 45 -38 51 -44 6 -5 25 -21 43 -35 18 -14 38 -30 44 -35 71 -62
265 -191 410 -274 60 -33 110 -61 112 -61 3 0 45 -20 94 -44 167 -82 490 -196
621 -219 14 -3 43 -10 65 -15 22 -6 57 -13 79 -16 21 -4 41 -8 45 -10 15 -9
303 -42 401 -46 164 -7 430 1 530 15 19 3 58 7 85 10 28 3 57 7 65 10 8 2 35
7 60 10 54 8 233 48 310 71 386 112 712 270 1035 502 81 59 129 97 235 187 48
42 258 251 300 300 230 267 413 558 546 868 61 142 142 376 160 465 2 12 13
59 24 105 11 45 22 99 26 121 3 21 7 47 9 56 4 19 13 80 21 140 11 83 19 224
19 335 0 95 -4 127 -18 152 -86 159 -307 159 -388 0 -15 -29 -21 -65 -24 -150
-5 -134 -18 -282 -30 -359 -3 -16 -7 -43 -10 -60 -49 -297 -174 -649 -327
-916 -459 -802 -1268 -1328 -2183 -1419 -147 -15 -551 -8 -640 10 -11 3 -45 8
-75 12 -30 4 -64 9 -75 12 -11 2 -31 6 -45 9 -291 57 -598 176 -877 341 -81
47 -309 204 -323 222 -3 3 -32 28 -65 56 -92 76 -254 240 -341 345 -223 269
-399 585 -508 912 -25 73 -47 145 -49 158 -3 14 -10 43 -15 65 -10 37 -13 51
-26 118 -10 48 -26 144 -31 187 -3 25 -8 61 -11 80 -9 60 -11 454 -3 526 5 38
14 107 20 154 7 47 13 92 14 100 11 78 58 269 93 375 140 426 371 806 676
1110 145 144 187 181 376 323 125 93 416 250 580 312 30 11 64 25 75 30 25 12
243 77 304 91 25 6 55 13 66 15 11 3 34 7 50 10 166 29 204 46 255 116 51 70
51 163 0 240 -56 84 -142 109 -285 82z"/>
<path d="M3795 6704 c-88 -32 -143 -122 -132 -217 21 -175 247 -242 362 -106
36 43 47 74 46 130 0 145 -139 241 -276 193z"/>
<path d="M4448 6600 c-121 -35 -187 -163 -147 -282 25 -74 73 -113 206 -167
601 -242 1067 -638 1403 -1191 50 -82 180 -339 180 -356 1 -21 110 -118 110
-98 0 4 5 3 12 -4 7 -7 37 -12 67 -12 153 0 258 144 207 286 -19 54 -127 276
-170 349 -19 33 -43 74 -52 90 -55 98 -257 372 -343 465 -256 275 -447 434
-734 614 -122 76 -340 188 -467 239 -47 19 -103 43 -124 52 -46 20 -109 26
-148 15z"/>
<path d="M3377 6074 c-1 -1 -47 -4 -102 -7 -55 -3 -107 -8 -115 -11 -8 -2 -39
-7 -69 -11 -118 -13 -323 -65 -491 -127 -764 -278 -1365 -933 -1580 -1723 -81
-300 -106 -539 -64 -619 43 -83 141 -131 233 -114 106 19 181 115 181 232 0
34 7 104 15 156 73 446 283 857 597 1167 117 116 124 122 233 202 319 237 690
379 1080 416 67 6 288 6 350 0 57 -6 169 -18 175 -20 3 -1 25 -5 50 -9 204
-34 472 -134 676 -252 288 -166 572 -444 745 -730 127 -211 239 -502 273 -709
3 -16 11 -61 18 -100 14 -78 18 -443 5 -540 -57 -456 -261 -888 -575 -1216
-188 -196 -340 -308 -612 -449 -139 -72 -173 -107 -188 -191 -30 -159 119
-290 277 -242 64 19 281 134 394 209 445 297 787 722 980 1219 32 82 73 207
82 245 2 8 12 51 23 95 11 44 26 116 32 160 7 44 14 89 16 100 25 118 21 518
-6 675 -5 30 -11 72 -14 92 -16 108 -83 346 -136 477 -232 587 -676 1075
-1229 1352 -164 81 -402 172 -508 194 -10 2 -48 10 -84 19 -88 20 -114 25
-174 32 -27 3 -52 7 -56 9 -15 10 -422 27 -432 19z"/>
<path d="M3030 5319 c-120 -31 -247 -78 -351 -129 -85 -42 -206 -110 -234
-132 -5 -5 -46 -35 -90 -68 -349 -262 -596 -661 -691 -1116 -24 -115 -28 -151
-28 -334 -1 -113 3 -227 7 -255 20 -128 30 -177 58 -274 54 -190 135 -363 248
-531 62 -91 72 -105 150 -194 231 -264 573 -472 923 -560 83 -21 269 -53 323
-55 60 -2 284 0 310 3 155 19 179 23 295 53 157 40 311 103 476 196 227 127
534 433 633 628 92 182 -94 374 -282 291 -42 -19 -82 -61 -140 -147 -26 -39
-78 -101 -148 -176 -200 -212 -522 -370 -834 -407 -74 -9 -271 -9 -345 0 -222
26 -460 118 -655 254 -171 119 -362 348 -454 545 -41 88 -95 243 -105 300 -3
19 -7 43 -10 54 -29 145 -29 314 0 510 8 60 52 208 84 286 176 426 571 757
1013 849 170 35 243 224 136 353 -63 76 -149 93 -289 56z"/>
<path d="M3885 5280 c-54 -26 -79 -49 -104 -98 -27 -54 -32 -108 -14 -162 29
-86 67 -117 203 -166 398 -141 722 -474 858 -879 50 -147 65 -237 67 -390 2
-121 5 -146 23 -182 84 -163 315 -163 396 0 29 58 34 106 21 201 -2 17 -7 67
-10 111 -22 280 -153 630 -329 878 -87 122 -235 280 -345 369 -76 61 -228 164
-259 175 -10 4 -28 14 -42 23 -36 24 -204 96 -280 119 -81 26 -134 26 -185 1z"/>
<path d="M3447 4644 c-1 -1 -36 -4 -77 -7 -41 -4 -84 -8 -95 -11 -439 -92
-770 -406 -882 -835 -34 -132 -40 -345 -13 -476 36 -170 85 -290 179 -430 169
-254 486 -445 797 -480 52 -6 199 -6 248 0 85 10 253 48 288 66 128 65 148
258 36 354 -60 51 -124 62 -224 40 -119 -27 -141 -29 -239 -29 -280 2 -540
192 -634 464 -104 301 24 649 300 813 191 113 439 126 641 33 67 -31 174 -109
220 -162 104 -117 172 -279 177 -419 3 -85 18 -137 53 -179 82 -99 241 -106
324 -14 64 70 74 156 39 358 -34 203 -148 420 -304 578 -201 205 -469 323
-759 335 -40 2 -73 3 -75 1z"/>
<path d="M6395 4282 c-159 -76 -167 -291 -13 -370 195 -100 388 129 258 306
-51 69 -169 100 -245 64z"/>
<path d="M3452 3815 c-111 -31 -199 -128 -220 -242 -19 -107 9 -194 88 -274
65 -66 132 -93 226 -92 113 0 219 70 274 179 33 66 35 187 4 255 -66 143 -222
216 -372 174z"/>
<path d="M1254 2735 c-125 -63 -150 -230 -47 -327 154 -146 403 10 336 211
-41 123 -171 175 -289 116z"/>
<path d="M1606 2245 c-123 -43 -184 -187 -125 -299 25 -48 53 -82 163 -195
279 -289 620 -511 979 -636 84 -30 270 -82 317 -90 19 -3 43 -8 53 -11 11 -3
29 -7 40 -9 12 -2 54 -8 92 -14 90 -13 194 -21 309 -23 104 -1 161 18 208 68
32 35 58 102 58 153 0 51 -41 131 -81 162 -49 38 -90 47 -224 53 -66 3 -136 8
-155 11 -19 2 -55 7 -80 10 -196 26 -459 112 -658 216 -224 117 -435 282 -605
474 -44 49 -97 100 -118 113 -45 27 -121 35 -173 17z"/>
</g>
</svg>
